<?xml version="1.0" encoding="UTF-8"?>
<!DOCTYPE svg PUBLIC "-//W3C//DTD SVG 1.1//EN" "http://www.w3.org/Graphics/SVG/1.1/DTD/svg11.dtd">
<!-- Creator: CorelDRAW 2026 -->
<svg xmlns="http://www.w3.org/2000/svg" xml:space="preserve" width="192px" height="192px" version="1.1" style="shape-rendering:geometricPrecision; text-rendering:geometricPrecision; image-rendering:optimizeQuality; fill-rule:evenodd; clip-rule:evenodd"
viewBox="0 0 192 192"
 xmlns:xlink="http://www.w3.org/1999/xlink"
 xmlns:xodm="http://www.corel.com/coreldraw/odm/2003">
 <defs>
  <style type="text/css">
   <![CDATA[
    .str0 {stroke:black;stroke-width:1.01;stroke-linecap:round;stroke-linejoin:round;stroke-miterlimit:10}
    .fil0 {fill:none}
    .fil2 {fill:#010101}
    .fil3 {fill:#020202}
    .fil1 {fill:#030303}
    .fil4 {fill:#050505}
    .fil5 {fill:#060606}
    .fil6 {fill:#030303;fill-rule:nonzero}
   ]]>
  </style>
 </defs>
 <g id="Camada_x0020_1">
  <metadata id="CorelCorpID_0Corel-Layer"/>
  <rect class="fil0" width="192" height="192"/>
  <g id="_2303300541088">
   <g>
    <path class="fil1" d="M72.69 26.89c1.67,-0.5 12.81,-0.18 15.48,-0.19 3.78,0 29.6,-0.24 31.03,0.13 2.82,0.72 2.59,3.72 2.6,5.28 0.01,2.56 0.01,5.13 0,7.69 -0.06,10.36 -0.02,20.75 0,31.11l0 23.42c0,1.89 0.2,4.36 -2.55,5.14 -1.37,0.39 -27.33,0.14 -31.08,0.14 -2.71,0 -13.64,0.35 -15.36,-0.12 -2.47,-0.67 -2.65,-2.33 -2.65,-5.16l-0.01 -62.22c0.01,-2.78 0.13,-4.49 2.54,-5.22zm47.11 74.77c0.04,-0.03 0.09,-0.06 0.11,-0.07l0.47 -0.26c4.12,-2.2 3.48,-4.67 3.47,-9.33 0,-4.53 0.01,-9.05 0.01,-13.58 0,-9.06 0.07,-18.13 0,-27.18 -0.02,-2.16 1.05,-3.6 1.82,-5.22 2.55,-5.37 2.31,-7.26 6.74,-5.23 1.61,0.73 3.12,1.39 4.7,2.1 6.3,2.82 12.42,5.55 18.68,8.48 1.48,0.7 3.64,1.3 4.39,2.58 1.15,1.95 0.01,3.28 -0.7,4.97 -1.33,3.16 -2.89,6.24 -4.28,9.3 -5.61,12.32 -11.63,24.84 -17.25,37.27 -0.46,1.01 -0.66,1.57 -1.37,2.03 -0.73,0.47 -1.75,0.76 -2.71,0.47l-9.44 -4.16c-1.38,-0.66 -3.45,-1.39 -4.64,-2.17zm-47.52 0.03l-14.05 6.33c-1.01,0.27 -2.08,0.04 -2.76,-0.47 -0.76,-0.57 -0.98,-1.18 -1.37,-2.04l-17.27 -37.25c-1.44,-3.02 -3.01,-6.16 -4.31,-9.27 -0.7,-1.65 -1.91,-3.17 -0.7,-5.1 0.71,-1.11 2.95,-1.84 4.44,-2.54 3.08,-1.43 6.18,-2.83 9.37,-4.21 3.12,-1.36 6.09,-2.81 9.34,-4.25 1.28,-0.57 6.02,-3.01 7.25,-2.88 2.22,0.23 2.62,2.92 4.11,6.08 0.81,1.7 1.79,3.05 1.77,5.15l0 40.76c0,4.53 -0.6,7.24 3.58,9.34l0.6 0.35zm-4.19 -61.59c-1.39,-1.23 -2.75,-4.51 -7.95,-1.87 -2.55,1.29 -5.39,2.44 -8.11,3.7 -5.44,2.52 -10.85,5.02 -16.34,7.43 -2.84,1.25 -5.81,2.04 -6.39,5.36 -0.4,2.29 2.03,6.79 3.01,8.76l18.78 40.4c1.37,2.94 2.07,5.9 5.64,6.33 2.28,0.27 6.61,-2.2 8.66,-3.08 1.41,-0.6 11.7,-5.37 12.42,-5.43 2.27,-0.21 25.56,-0.02 29.67,-0.01 1.97,0 3.94,-0.01 5.91,-0.01 1.62,0.01 3.01,0.88 4.37,1.5 2.43,1.11 15.09,6.97 16.72,7.05 1.94,0.1 3.28,-0.78 4.16,-1.74 0.89,-0.97 1.36,-2.53 2.01,-3.88 1.26,-2.62 2.65,-5.52 3.8,-8.18 2.43,-5.62 5.06,-10.86 7.49,-16.28 2.45,-5.45 4.97,-10.64 7.57,-16.2 0.88,-1.88 3.35,-6.47 3.23,-8.6 -0.22,-3.87 -3.24,-4.62 -6.11,-5.89l-24.46 -11.11c-1.48,-0.67 -2.75,-1.43 -4.77,-0.98 -0.81,0.19 -1.57,0.59 -2.05,0.99 -0.89,0.76 -0.84,1.2 -1.49,1.72 -0.02,-6.81 1.98,-15.48 -6.18,-15.46l-43.28 0c-8.42,-0.01 -6.17,8.34 -6.31,15.48z"/>
    <path class="fil2" d="M87.08 62.45c0.26,0.7 2.35,2.48 3.64,4.12l3.24 4.1c0.2,0.23 0.08,0.12 0.29,0.28 0.61,-0.61 1.12,-1.37 1.67,-2.13l5.32 -6.39c-1.36,-0.87 -6.46,-7.66 -6.99,-8.11 -0.51,0.33 -2.85,3.44 -3.47,4.18 -1.15,1.37 -2.37,2.81 -3.7,3.95z"/>
    <path class="fil3" d="M138.4 73.04c3.08,-2.84 -1.19,-6.76 -3.93,-4.28 -0.94,0.85 -0.85,1.69 -0.72,3.02 -0.99,-0.48 -1.76,-1.24 -3.38,-0.5 -0.86,0.4 -1.54,1.26 -1.63,2.49 -0.11,1.39 0.64,2.33 1.52,2.79 1.39,0.74 2.19,0.11 3.25,-0.23 -0.78,1.96 -2.19,2.48 -2.72,3.03l3.61 1.43c-0.24,-1.6 -0.37,-2.7 0.35,-4.06 0.47,3.16 3.76,3.04 4.99,1.77 1.79,-1.85 0.61,-4.48 -1.95,-4.85l0.61 -0.61z"/>
    <path class="fil2" d="M52.91 77.49c0.32,0.41 0.44,1 0.49,1.52 0.09,0.84 -0.05,1.21 -0.15,1.97 0.78,-0.28 3.3,-1.41 3.73,-1.85 -1.2,-0.74 -2.4,-0.86 -2.97,-2.16 3.85,1 5.2,-2.97 2.62,-4.91 -0.4,-0.3 -6.94,-2.97 -7.38,-3.05 -0.66,2.91 -4.16,9.79 0.49,10.5 1.87,0.28 2.75,-0.74 3.17,-2.02z"/>
    <path class="fil4" d="M79.66 35.49l1.25 3.89 -2.63 -0.01 1.38 -3.88zm-4.34 7.88c0.69,0.43 2.15,0.18 3.05,0.18 0.04,-1.03 -0.27,-0.53 -1.02,-0.96l0.65 -2.37 3.22 -0.04c0.24,0.73 0.69,1.65 0.68,2.48 -0.83,0.4 -0.73,-0.04 -0.84,0.71 0.51,0.32 3.32,0.33 3.84,0 -0.18,-1.33 -0.37,0.69 -1.31,-2.04l-2.77 -7.92 -1.29 -0.03c-0.63,1.38 -1.29,3.64 -1.82,5.24 -0.3,0.88 -0.6,1.74 -0.92,2.68 -0.95,2.81 -1.25,0.62 -1.47,2.07z"/>
    <path class="fil5" d="M110.41 86.02l2.39 -0.01c0.07,0.7 -0.8,3.25 -1.21,3.81 -0.39,-0.74 -1.13,-3 -1.18,-3.8zm-0.78 -4.03c-0.65,-0.11 -2.73,-0.13 -3.16,0.18 0.57,1.39 0.38,-0.8 1.49,2.4 0.31,0.9 0.62,1.89 0.94,2.81 0.34,0.99 0.65,1.93 0.99,2.94 0.57,1.75 0.09,1.76 1.86,1.8 0.68,-1.44 1.25,-3.67 1.8,-5.32 0.3,-0.89 0.63,-1.81 0.89,-2.66 0.72,-2.3 1.21,-0.83 1.51,-1.97 -0.58,-0.34 -2.81,-0.29 -3.2,0 0.12,0.68 0.25,0.46 1.1,0.7l-0.69 2.33 -3.14 -0.04 -0.63 -2.27c0.82,-0.45 0.63,0.06 0.84,-0.72 -0.04,-0.02 -0.1,-0.05 -0.14,-0.06l-0.46 -0.12z"/>
    <path class="fil4" d="M131.19 53.09c0.22,-0.7 0.71,-1.11 1.15,-1.67 0.41,-0.52 0.76,-0.73 1.24,-1.2l-0.36 3.71 -2.03 -0.84zm-3.84 1.9c0.21,0.7 2.24,1.34 2.51,1.26 0.25,-0.61 -0.04,-0.43 -0.55,-0.86 0.26,-0.75 0.82,-1.27 1.23,-1.8 0.89,0.26 1.69,0.73 2.61,1.11l-0.1 2.09 -0.95 0.28c-0.04,0.02 -0.1,0.04 -0.14,0.07 0.28,0.51 0.91,0.64 1.45,0.88 2.95,1.31 1.23,0.25 1.33,-1.34 0.14,-2.18 0.58,-5.99 0.51,-7.76l-1.12 -0.54c-0.95,1.23 -1,1.06 -1.53,1.7l-3.93 4.48c-0.77,0.58 -0.6,0.11 -1.32,0.43z"/>
    <path class="fil4" d="M41.15 57.99l2.67 2.52 -2.12 0.98 -0.55 -3.5zm-1 -1.82c0.13,1.85 0.79,5.29 1.1,7.49 0.3,2.08 -0.64,1.23 -0.34,2.1 0.46,0.12 1.82,-0.55 2.07,-0.72 0.6,-0.39 0.32,-0.12 0.42,-0.52 -0.95,-0.65 -1.33,0.89 -1.54,-2.36l2.29 -1.03c0.57,0.21 1.4,1.03 1.67,1.55 -0.54,1.05 -0.65,-0.01 -0.48,1.01 0.7,-0.01 2.93,-1.08 3.24,-1.54 -0.53,-0.56 -0.86,0.01 -1.9,-1.06l-5.35 -5.29 -1.18 0.37z"/>
   </g>
   <g>
    <path class="fil6" d="M25.3 165.43l0 -49.78 8.07 0 0 42.54 18.1 0 0 7.24 -26.17 0zm72.85 -24.79c0,-2.51 -0.46,-4.9 -1.38,-7.17 -0.92,-2.26 -2.24,-4.28 -3.96,-6.04 -1.68,-1.75 -3.62,-3.09 -5.82,-4.03 -2.22,-0.94 -4.55,-1.41 -6.99,-1.41 -2.44,0 -4.78,0.46 -6.99,1.39 -2.21,0.93 -4.18,2.28 -5.9,4.05 -1.71,1.74 -3.04,3.75 -3.94,6.01 -0.91,2.26 -1.36,4.66 -1.36,7.2 0,2.52 0.45,4.9 1.36,7.14 0.9,2.24 2.23,4.25 3.94,6.01 1.72,1.77 3.68,3.12 5.89,4.05 2.19,0.93 4.53,1.39 7,1.39 2.43,0 4.73,-0.46 6.92,-1.39 2.18,-0.93 4.15,-2.28 5.89,-4.05 1.72,-1.76 3.04,-3.77 3.96,-6.02 0.92,-2.26 1.38,-4.63 1.38,-7.13zm8.42 0c0,3.54 -0.66,6.88 -1.98,10.03 -1.34,3.15 -3.26,5.96 -5.8,8.43 -2.55,2.47 -5.44,4.37 -8.67,5.68 -3.21,1.31 -6.59,1.97 -10.12,1.97 -3.58,0 -6.99,-0.66 -10.25,-1.99 -3.25,-1.33 -6.12,-3.21 -8.61,-5.66 -2.54,-2.47 -4.47,-5.26 -5.78,-8.4 -1.31,-3.12 -1.97,-6.47 -1.97,-10.06 0,-3.56 0.66,-6.91 1.97,-10.05 1.31,-3.16 3.24,-5.98 5.78,-8.47 2.54,-2.48 5.42,-4.35 8.63,-5.64 3.22,-1.29 6.63,-1.94 10.23,-1.94 3.58,0 6.96,0.65 10.18,1.94 3.2,1.29 6.08,3.16 8.61,5.64 2.54,2.51 4.46,5.36 5.8,8.51 1.32,3.17 1.98,6.5 1.98,10.01z"/>
    <path class="fil6 str0" d="M158.81 146.05c0.42,-1.57 0.65,-3.21 0.65,-4.92 0,-1.7 -0.23,-3.34 -0.65,-4.91l6.63 -1.78c0.57,2.13 0.88,4.38 0.88,6.69 0,2.32 -0.31,4.56 -0.88,6.7l-6.63 -1.78zm-5.42 17.49c-2.01,1.16 -4.11,2.01 -6.24,2.59l-1.78 -6.64c1.57,-0.42 3.11,-1.04 4.58,-1.9 1.48,-0.85 2.79,-1.87 3.94,-3.01l4.85 4.85c-1.56,1.56 -3.35,2.95 -5.35,4.11zm-31.57 -22.41c0,-10.28 8.34,-18.62 18.63,-18.62 10.29,0 18.63,8.34 18.63,18.62 0,10.29 -8.34,18.63 -18.63,18.63 -10.29,0 -18.63,-8.34 -18.63,-18.63zm11.93 25c-2.14,-0.58 -4.23,-1.43 -6.24,-2.59 -2,-1.16 -3.79,-2.55 -5.36,-4.11l4.86 -4.85c1.15,1.14 2.46,2.17 3.93,3.02 1.48,0.85 3.02,1.48 4.59,1.89l-1.78 6.64zm-18.29 -18.3c-0.57,-2.14 -0.88,-4.38 -0.88,-6.7 0,-2.31 0.31,-4.56 0.88,-6.69l6.63 1.78c-0.42,1.57 -0.65,3.21 -0.65,4.91 0,1.71 0.23,3.35 0.65,4.92l-6.63 1.78zm12.05 -29.1c2.01,-1.16 4.1,-2.01 6.24,-2.59l1.78 6.63c-1.57,0.42 -3.11,1.05 -4.59,1.9 -1.47,0.85 -2.78,1.88 -3.93,3.02l-4.86 -4.85c1.57,-1.56 3.36,-2.95 5.36,-4.11zm19.64 -2.59c2.13,0.58 4.23,1.43 6.24,2.59 2,1.16 3.79,2.55 5.35,4.11l-4.85 4.85c-1.15,-1.14 -2.46,-2.17 -3.94,-3.02 -1.47,-0.85 -3.01,-1.48 -4.58,-1.9l1.78 -6.63zm-6.7 -1.26c-14.5,0 -26.25,11.76 -26.25,26.25 0,14.5 11.75,26.25 26.25,26.25 14.5,0 26.25,-11.75 26.25,-26.25 0,-14.49 -11.75,-26.25 -26.25,-26.25z"/>
    <path class="fil6" d="M145.14 142.22l-3.88 3.78 3.88 3.78 3.89 -3.78 -3.89 -3.78zm4.07 -5.71c0,-0.88 -0.72,-1.6 -1.61,-1.6 -0.71,0 -1.31,0.47 -1.52,1.11l-0.1 0c-0.22,0 -0.4,-0.18 -0.4,-0.4l0 0c0.65,-0.21 1.11,-0.81 1.11,-1.52 0,-0.89 -0.71,-1.61 -1.6,-1.61 -0.88,0 -1.6,0.72 -1.6,1.61 0,0.71 0.47,1.31 1.11,1.52l0 0c0,0.22 -0.18,0.4 -0.4,0.4 -0.21,-0.64 -0.81,-1.11 -1.52,-1.11 -0.89,0 -1.61,0.72 -1.61,1.6 0,0.89 0.72,1.6 1.61,1.6 0.71,0 1.31,-0.46 1.52,-1.11 0,0 0.4,0.18 0.4,0.4l0 1.27c-0.26,0.74 -1.25,0.85 -1.25,0.85l0 0.53 1.25 0 0.98 0 1.25 0 0 -0.53c0,0 -0.99,-0.11 -1.25,-0.85l0 -1.27c0,-0.22 0.5,-0.4 0.5,-0.4 0.21,0.65 0.81,1.11 1.52,1.11 0.89,0 1.61,-0.71 1.61,-1.6zm-10.52 8.17c-1.14,-1.54 -2.77,-2.46 -2.77,-2.46 0,0 -1.63,0.92 -2.77,2.46 -1.03,1.38 -1.61,3.09 -0.5,3.91 1.19,0.88 2.21,-0.45 2.78,-1.09l0 0.89c-0.26,0.75 -1.25,0.86 -1.25,0.86l0 0.53 1.25 0 0.98 0 1.25 0 0 -0.53c0,0 -0.99,-0.11 -1.25,-0.86l0 -0.89c0.57,0.64 1.59,1.97 2.78,1.09 1.11,-0.82 0.52,-2.53 -0.5,-3.91zm0.88 -11.74c-2.05,-1.53 -3.65,1.32 -3.65,1.32 0,0 -1.6,-2.85 -3.65,-1.32 -1.24,0.92 -0.58,2.83 0.56,4.37 1.27,1.71 3.09,2.74 3.09,2.74 0,0 1.82,-1.03 3.09,-2.74 1.15,-1.54 1.8,-3.45 0.56,-4.37zm0.83 24.06c-8.76,0 -15.86,-7.1 -15.86,-15.87 0,-8.76 7.1,-15.86 15.86,-15.86 8.77,0 15.87,7.1 15.87,15.86 0,8.77 -7.1,15.87 -15.87,15.87z"/>
   </g>
  </g>
 </g>
</svg>
